<svg width="103" height="32" viewBox="0 0 103 32" fill="none" xmlns="http://www.w3.org/2000/svg">
<g clip-path="url(#clip0_2_7286)">
<path d="M53.875 7.99978C53.875 9.11778 52.9502 10.018 51.8024 10.018C50.6547 10.018 49.7306 9.11778 49.7306 7.99978C49.7306 6.88177 50.6232 5.98154 51.8024 5.98154C52.9826 6.01256 53.875 6.91311 53.875 7.99978ZM45.3314 12.0679V12.5649C45.3314 12.5649 44.3435 11.3221 42.2395 11.3221C38.7651 11.3221 36.055 13.8997 36.055 17.4705C36.055 21.0107 38.7333 23.6189 42.2395 23.6189C44.3754 23.6189 45.3314 22.3458 45.3314 22.3458V22.8735C45.3314 23.122 45.5231 23.3078 45.7779 23.3078H48.3596V11.6317H45.7779C45.5231 11.6327 45.3314 11.8504 45.3314 12.0679ZM45.3314 19.5511C44.8537 20.2345 43.8971 20.8246 42.7497 20.8246C40.7096 20.8246 39.1473 19.5825 39.1473 17.4705C39.1473 15.3589 40.7096 14.1168 42.7497 14.1168C43.8655 14.1168 44.8856 14.7379 45.3314 15.39V19.5511ZM50.2726 11.6327H53.3326V23.3087H50.2726V11.6327ZM95.9855 11.3218C93.8815 11.3218 92.893 12.5645 92.893 12.5645V6.01256H89.8329V23.3087H92.4153C92.6704 23.3087 92.8611 23.0913 92.8611 22.8738V22.3462C92.8611 22.3462 93.8496 23.6193 95.953 23.6193C99.428 23.6193 102.137 21.0116 102.137 17.4715C102.137 13.9313 99.428 11.3218 95.9855 11.3218ZM95.4753 20.7932C94.2955 20.7932 93.3713 20.2038 92.893 19.5201V15.3589C93.3713 14.7379 94.3913 14.0858 95.4753 14.0858C97.5154 14.0858 99.0774 15.3279 99.0774 17.4395C99.0774 19.5511 97.5157 20.7932 95.4753 20.7932ZM88.2394 16.3842V23.3398H85.1787V16.7254C85.1787 14.8006 84.5411 14.0238 82.8208 14.0238C81.8967 14.0238 80.94 14.4897 80.3333 15.1731V23.3091H77.2739V11.633H79.6958C79.9509 11.633 80.1423 11.8504 80.1423 12.0679V12.5649C81.0349 11.664 82.2141 11.3221 83.3934 11.3221C84.7325 11.3221 85.8484 11.6953 86.741 12.4405C87.8244 13.31 88.2394 14.4277 88.2394 16.3842ZM69.8453 11.3218C67.7419 11.3218 66.7534 12.5645 66.7534 12.5645V6.01256H63.6933V23.3087H66.2751C66.5301 23.3087 66.7215 23.0913 66.7215 22.8738V22.3462C66.7215 22.3462 67.71 23.6193 69.8134 23.6193C73.2884 23.6193 75.9979 21.0116 75.9979 17.4715C76.0297 13.931 73.3203 11.3218 69.8453 11.3218ZM69.3351 20.7932C68.1559 20.7932 67.2317 20.2038 66.7534 19.5201V15.3589C67.2317 14.7379 68.2517 14.0858 69.3351 14.0858C71.3758 14.0858 72.9375 15.3279 72.9375 17.4395C72.9375 19.5511 71.3758 20.7932 69.3351 20.7932ZM61.0473 11.3218C61.9714 11.3218 62.4497 11.4776 62.4497 11.4776V14.2409C62.4497 14.2409 59.8995 13.4024 58.306 15.1728V23.3394H55.2453V11.6327H57.8277C58.0827 11.6327 58.2735 11.8501 58.2735 12.0676V12.5645C58.848 11.9122 60.0912 11.3218 61.0473 11.3218ZM29.2655 22.2528C29.1063 21.8802 28.9468 21.4766 28.7875 21.1348C28.5321 20.5761 28.2771 20.0478 28.0545 19.5511L28.0226 19.5201C25.8227 14.862 23.4642 10.1424 20.9774 5.48489L20.8818 5.29814C20.6203 4.81497 20.3654 4.32842 20.1172 3.83859C19.7981 3.27928 19.4797 2.68988 18.9695 2.13056C17.9495 0.888475 16.483 0.205078 14.9213 0.205078C13.3271 0.205078 11.8927 0.888479 10.8412 2.06821C10.3629 2.62691 10.0119 3.21693 9.69348 3.77625C9.44469 4.26576 9.1898 4.75231 8.92887 5.23579L8.83301 5.42253C6.37834 10.0801 3.98768 14.7999 1.7881 19.4578L1.75594 19.5195C1.53302 20.0171 1.27761 20.5447 1.02253 21.1031C0.863301 21.445 0.704072 21.8175 0.544844 22.2211C0.130212 23.3698 0.00250503 24.4568 0.162371 25.5751C0.512992 27.9042 2.10655 29.8598 4.30645 30.7299C5.1354 31.0718 5.99619 31.2269 6.88851 31.2269C7.14359 31.2269 7.46206 31.1959 7.71746 31.1645C8.76964 31.0405 9.85335 30.6992 10.9055 30.1092C12.2125 29.3948 13.4557 28.3705 14.8582 26.8799C16.2607 28.3705 17.5358 29.3948 18.8109 30.1092C19.8634 30.6992 20.9468 31.0405 21.9987 31.1645C22.2537 31.1962 22.5728 31.2269 22.8279 31.2269C23.7206 31.2269 24.6129 31.0718 25.4097 30.7299C27.6414 29.8598 29.2031 27.8732 29.5541 25.5751C29.8072 24.4885 29.6799 23.4021 29.2655 22.2528ZM14.8891 23.8674C13.1675 21.7558 12.0517 19.7686 11.6695 18.0922C11.5103 17.3778 11.4781 16.7568 11.574 16.1978C11.6373 15.7008 11.8291 15.2659 12.0841 14.8933C12.6898 14.0554 13.7099 13.5271 14.8894 13.5271C16.0693 13.5271 17.1212 14.0241 17.695 14.8933C17.9501 15.2659 18.1412 15.7011 18.2055 16.1978C18.3007 16.7571 18.2689 17.4088 18.1097 18.0922C17.7259 19.7376 16.6101 21.7251 14.8891 23.8674ZM27.6077 25.327C27.3847 26.9416 26.2689 28.3394 24.7071 28.9605C23.9422 29.2707 23.1129 29.3641 22.2846 29.2707C21.4879 29.1773 20.6904 28.9288 19.8621 28.4635C18.7144 27.8419 17.567 26.8799 16.2279 25.4511C18.3316 22.9362 19.6067 20.6378 20.0851 18.5889C20.3083 17.626 20.3405 16.7568 20.2443 15.949C20.1172 15.1728 19.83 14.4584 19.3838 13.8373C18.395 12.4395 16.7371 11.6327 14.8888 11.6327C13.0405 11.6327 11.3826 12.4712 10.3944 13.8373C9.94824 14.4584 9.66099 15.1728 9.53361 15.949C9.40623 16.7568 9.43776 17.657 9.69284 18.5889C10.1708 20.6378 11.4778 22.9669 13.5497 25.4821C12.2427 26.9106 11.0632 27.8735 9.91544 28.4946C9.0865 28.9605 8.29004 29.209 7.49326 29.3017C6.63279 29.3951 5.80353 29.2707 5.07044 28.9915C3.50872 28.3705 2.39285 26.9727 2.16993 25.358C2.07439 24.5818 2.13777 23.8057 2.45686 22.9362C2.55208 22.6253 2.71194 22.3151 2.87117 21.9426C3.09441 21.4456 3.34886 20.9173 3.60426 20.3896L3.63643 20.3279C5.83569 15.7008 8.19451 10.9809 10.6492 6.38543L10.7447 6.19869C11.0001 5.73337 11.2552 5.23641 11.51 4.77047C11.765 4.27351 12.0517 3.80757 12.4026 3.40368C13.072 2.65917 13.9643 2.25496 14.9528 2.25496C15.9413 2.25496 16.8336 2.65917 17.503 3.40368C17.854 3.8085 18.1406 4.27444 18.3956 4.77047C18.651 5.23641 18.9061 5.73337 19.1606 6.19869L19.2564 6.38543C21.6737 11 24.0012 15.6587 26.2376 20.3589V20.39C26.4931 20.8875 26.716 21.4459 26.9711 21.9435C27.1303 22.3154 27.2898 22.6257 27.3854 22.9365C27.6398 23.743 27.7354 24.5198 27.6077 25.327Z" fill="#D0D2DA"/>
</g>
<defs>
<clipPath id="clip0_2_7286">
<rect width="102.072" height="31.0218" fill="white" transform="translate(0.0800781 0.205078)"/>
</clipPath>
</defs>
</svg>
