<svg width="98" height="29" viewBox="0 0 98 29" fill="currentColor" xmlns="http://www.w3.org/2000/svg">
<g clip-path="url(#clip0_2_7290)">
<path fill-rule="evenodd" clip-rule="evenodd" d="M60.377 22.7591C54.7492 26.8309 46.5633 29.0002 39.503 29.0002C29.6118 29.0002 20.7438 25.4291 13.9905 19.4884C13.4789 19.0212 13.9223 18.3871 14.5703 18.7542C21.8352 22.8926 30.8056 25.3624 40.0829 25.3624C46.3246 25.3624 53.2143 24.0941 59.5584 21.4575C60.5134 21.0904 61.2979 22.0917 60.377 22.7591Z" fill="currentColor"/>
<path fill-rule="evenodd" clip-rule="evenodd" d="M62.7303 20.1227C62.014 19.2216 57.9552 19.6888 56.1475 19.9225C55.6018 19.9892 55.4994 19.522 56.011 19.1882C59.2513 16.9521 64.5379 17.6196 65.1519 18.3538C65.7658 19.0881 64.9813 24.2945 61.9458 26.7643C61.4683 27.1314 61.0249 26.9311 61.2295 26.4305C61.9117 24.7618 63.4465 21.0572 62.7303 20.1227Z" fill="currentColor"/>
<path fill-rule="evenodd" clip-rule="evenodd" d="M56.2496 3.50246V1.3331C56.2496 0.999353 56.4884 0.799102 56.7953 0.799102H66.6866C66.9935 0.799102 67.2664 1.03273 67.2664 1.3331V3.16871C67.2664 3.46908 66.9935 3.86958 66.516 4.53708L61.3999 11.6793C63.3099 11.6459 65.3223 11.9129 67.0276 12.8474C67.4028 13.0476 67.5051 13.3814 67.5393 13.6818V15.9846C67.5393 16.3184 67.1982 16.6855 66.823 16.4852C63.7874 14.9166 59.7286 14.7497 56.386 16.5186C56.045 16.6855 55.6698 16.3517 55.6698 16.018V13.8153C55.6698 13.4815 55.6698 12.8808 56.045 12.3468L61.9797 4.03646H56.8294C56.5225 4.03646 56.2496 3.80283 56.2496 3.50246ZM20.1978 16.9525H17.1963C16.9234 16.9191 16.6847 16.7189 16.6506 16.4519V1.36648C16.6506 1.0661 16.9234 0.832479 17.2304 0.832479H20.0272C20.3342 0.832479 20.5388 1.0661 20.573 1.3331V3.30221H20.6412C21.3574 1.39985 22.7558 0.498731 24.5977 0.498731C26.4736 0.498731 27.6674 1.39985 28.4859 3.30221C29.2022 1.39985 30.8735 0.498731 32.6471 0.498731C33.9091 0.498731 35.2734 0.999353 36.1261 2.16747C37.0811 3.43571 36.8764 5.27132 36.8764 6.90669V16.4519C36.8764 16.7522 36.6036 16.9859 36.2966 16.9859H33.3292C33.0223 16.9525 32.7835 16.7189 32.7835 16.4519V8.44192C32.7835 7.8078 32.8517 6.20581 32.7153 5.60506C32.4765 4.60382 31.8285 4.30345 30.9417 4.30345C30.2254 4.30345 29.441 4.7707 29.134 5.53832C28.827 6.30594 28.8611 7.57417 28.8611 8.44192V16.4519C28.8611 16.7522 28.5883 16.9859 28.2813 16.9859H25.2798C24.9728 16.9525 24.7341 16.7189 24.7341 16.4519V8.44192C24.7341 6.77318 25.007 4.27007 22.8923 4.27007C20.7435 4.27007 20.8117 6.67306 20.8117 8.44192V16.4519C20.7776 16.7189 20.5388 16.9525 20.1978 16.9525ZM75.7933 0.498731C80.2614 0.498731 82.6831 4.2367 82.6831 9.00929C82.6831 13.615 80.0227 17.2862 75.7933 17.2862C71.4275 17.2862 69.04 13.5483 69.04 8.87579C69.0059 4.16996 71.4275 0.498731 75.7933 0.498731ZM75.7933 3.60258C73.5763 3.60258 73.4399 6.57294 73.4399 8.40855C73.4399 10.2442 73.4058 14.1824 75.7592 14.1824C78.0785 14.1824 78.215 11.0118 78.215 9.07605C78.215 7.8078 78.1468 6.27257 77.7716 5.07108C77.4305 4.00308 76.7483 3.60258 75.7933 3.60258ZM88.4473 16.9525H85.4458C85.1388 16.9191 84.9001 16.6855 84.9001 16.4185V1.29972C84.9342 1.03273 85.1729 0.799102 85.4799 0.799102H88.2767C88.5496 0.799102 88.7543 0.999357 88.8225 1.23298V3.53584H88.8907C89.7434 1.4666 90.903 0.498731 92.9836 0.498731C94.3138 0.498731 95.644 0.965974 96.4967 2.26759C97.2812 3.46908 97.2812 5.50494 97.2812 6.97343V16.4852C97.2471 16.7522 97.0083 16.9525 96.7013 16.9525H93.6999C93.427 16.9191 93.1883 16.7189 93.1541 16.4852V8.27504C93.1541 6.60631 93.3588 4.20333 91.2782 4.20333C90.562 4.20333 89.8798 4.67058 89.5387 5.40482C89.1294 6.33932 89.0612 7.24043 89.0612 8.27504V16.4185C89.0271 16.7189 88.7543 16.9525 88.4473 16.9525ZM48.3707 9.74354C48.3707 10.8783 48.4048 11.8461 47.825 12.8808C47.3475 13.7151 46.5971 14.2158 45.7444 14.2158C44.5848 14.2158 43.9026 13.348 43.9026 12.0798C43.9026 9.57667 46.1878 9.10941 48.3707 9.10941V9.74354ZM51.4063 16.9191C51.2017 17.086 50.9288 17.1194 50.6901 16.9859C49.7009 16.1849 49.4963 15.7844 48.9506 15.0167C47.3134 16.6521 46.1196 17.1527 44.0049 17.1527C41.481 17.1527 39.5027 15.6175 39.5027 12.5804C39.5027 10.1774 40.8329 8.57542 42.7089 7.77442C44.346 7.07355 46.6312 6.94006 48.3707 6.73981V6.37269C48.3707 5.67182 48.4389 4.83745 47.9955 4.23671C47.6204 3.70271 46.9382 3.46908 46.3243 3.46908C45.1646 3.46908 44.1414 4.03646 43.9026 5.23795C43.8344 5.50495 43.6639 5.77194 43.391 5.77194L40.4919 5.47157C40.2531 5.40482 39.9802 5.23795 40.0485 4.87082C40.7306 1.39985 43.9026 0.365234 46.7677 0.365234C48.2343 0.365234 50.1443 0.732355 51.304 1.83372C52.7706 3.16871 52.6342 4.97095 52.6342 6.90669V11.479C52.6342 12.8474 53.214 13.4481 53.7597 14.2158C53.9644 14.4828 53.9985 14.8165 53.7597 14.9834C53.1117 15.484 52.0203 16.4185 51.4063 16.9191ZM8.97633 9.74354C8.97633 10.8783 9.01044 11.8461 8.43061 12.8808C7.9531 13.7151 7.20273 14.2158 6.35003 14.2158C5.19037 14.2158 4.50822 13.348 4.50822 12.0798C4.50822 9.57667 6.79344 9.10941 8.97633 9.10941V9.74354ZM11.9778 16.9191C11.7732 17.086 11.5003 17.1194 11.2615 16.9859C10.2724 16.1849 10.0678 15.7844 9.52205 15.0167C7.88488 16.6521 6.69111 17.1527 4.57644 17.1527C2.05246 17.1527 0.0742188 15.6175 0.0742188 12.5804C0.0742188 10.1774 1.40442 8.57542 3.28034 7.77442C4.91751 7.07355 7.20273 6.94006 8.94222 6.73981V6.37269C8.94222 5.67182 9.01044 4.83745 8.56704 4.23671C8.19185 3.70271 7.5097 3.46908 6.89576 3.46908C5.7361 3.46908 4.71286 4.03646 4.47411 5.23795C4.4059 5.50495 4.23536 5.77194 3.9625 5.77194L1.06334 5.47157C0.824586 5.40482 0.551729 5.23795 0.619944 4.87082C1.3021 1.39985 4.47411 0.365234 7.33916 0.365234C8.80579 0.365234 10.7158 0.732355 11.8755 1.83372C13.3421 3.16871 13.2057 4.97095 13.2057 6.90669V11.479C13.2057 12.8474 13.7855 13.4481 14.3312 14.2158C14.5359 14.4828 14.57 14.8165 14.3312 14.9834C13.6832 15.484 12.5917 16.4185 11.9778 16.9191Z" fill="currentColor"/>
</g>
<defs>
<clipPath id="clip0_2_7290">
<rect width="97.2111" height="28.6355" fill="white" transform="translate(97.2832 29) rotate(-180)"/>
</clipPath>
</defs>
</svg>
