<svg width="18" height="18" viewBox="0 0 18 18" fill="none" xmlns="http://www.w3.org/2000/svg">
<path d="M2.83207 16.2361L3.24252 15.6084L2.83207 16.2361ZM1.84881 15.3511L2.43239 14.88L1.84881 15.3511ZM16.1512 15.3511L15.5676 14.88L16.1512 15.3511ZM15.1679 16.2361L15.5784 16.8638L15.1679 16.2361ZM15.1679 3.36393L15.5784 2.73622L15.1679 3.36393ZM16.1512 4.24886L15.5676 4.71996L16.1512 4.24886ZM2.83207 3.36393L3.24252 3.99165L2.83207 3.36393ZM1.84881 4.24886L2.43239 4.71996L1.84881 4.24886ZM15.4158 12.2492L15.31 11.5068H15.31L15.4158 12.2492ZM11.7214 15.5743L10.9827 15.4443L11.7214 15.5743ZM6.33333 9.85C5.91912 9.85 5.58333 10.1858 5.58333 10.6C5.58333 11.0142 5.91912 11.35 6.33333 11.35V9.85ZM11.6667 11.35C12.0809 11.35 12.4167 11.0142 12.4167 10.6C12.4167 10.1858 12.0809 9.85 11.6667 9.85V11.35ZM10.9167 3.4C10.9167 3.81421 11.2525 4.15 11.6667 4.15C12.0809 4.15 12.4167 3.81421 12.4167 3.4H10.9167ZM12.4167 1C12.4167 0.585786 12.0809 0.25 11.6667 0.25C11.2525 0.25 10.9167 0.585786 10.9167 1H12.4167ZM5.58333 3.4C5.58333 3.81421 5.91912 4.15 6.33333 4.15C6.74755 4.15 7.08333 3.81421 7.08333 3.4H5.58333ZM7.08333 1C7.08333 0.585786 6.74755 0.25 6.33333 0.25C5.91912 0.25 5.58333 0.585786 5.58333 1H7.08333ZM16.9743 12.2L17.7237 12.2285L16.9743 12.2ZM1.02571 7.4L0.276257 7.37147L1.02571 7.4ZM16.9743 7.4L17.7237 7.37147L16.9743 7.4ZM9 16.25C7.31839 16.25 6.11145 16.2492 5.17702 16.158C4.25247 16.0679 3.68164 15.8955 3.24252 15.6084L2.42161 16.8638C3.15078 17.3406 3.99738 17.5501 5.03145 17.651C6.05563 17.7508 7.34851 17.75 9 17.75V16.25ZM0.25 9.8C0.25 11.2814 0.248733 12.4593 0.361478 13.3958C0.476537 14.3516 0.718606 15.1451 1.26524 15.8222L2.43239 14.88C2.13021 14.5057 1.94787 14.0235 1.85073 13.2166C1.75127 12.3904 1.75 11.3184 1.75 9.8H0.25ZM3.24252 15.6084C2.92856 15.4031 2.65573 15.1567 2.43239 14.88L1.26524 15.8222C1.59016 16.2247 1.98096 16.5756 2.42161 16.8638L3.24252 15.6084ZM15.5676 14.88C15.3443 15.1567 15.0714 15.4031 14.7575 15.6084L15.5784 16.8638C16.019 16.5756 16.4098 16.2247 16.7348 15.8222L15.5676 14.88ZM14.7575 3.99165C15.0714 4.19695 15.3443 4.4433 15.5676 4.71996L16.7348 3.77776C16.4098 3.37526 16.019 3.02436 15.5784 2.73622L14.7575 3.99165ZM2.42161 2.73622C1.98096 3.02436 1.59016 3.37526 1.26524 3.77776L2.43239 4.71996C2.65573 4.4433 2.92856 4.19695 3.24252 3.99165L2.42161 2.73622ZM15.31 11.5068C13.1325 11.8171 11.3478 13.3701 10.9827 15.4443L12.46 15.7043C12.6974 14.3553 13.8957 13.2235 15.5217 12.9917L15.31 11.5068ZM6.33333 11.35H11.6667V9.85H6.33333V11.35ZM16.9743 11.45C16.1904 11.45 15.7176 11.4487 15.31 11.5068L15.5217 12.9917C15.7978 12.9524 16.1408 12.95 16.9743 12.95L16.9743 11.45ZM16.25 9.8C16.25 10.7398 16.2499 11.5133 16.2248 12.1715L17.7237 12.2285C17.7501 11.5357 17.75 10.7305 17.75 9.8H16.25ZM16.2248 12.1715C16.1687 13.6465 15.9864 14.3612 15.5676 14.88L16.7348 15.8222C17.4843 14.8937 17.6663 13.7362 17.7237 12.2285L16.2248 12.1715ZM12.4167 16.9769C12.4167 16.2186 12.42 15.9315 12.46 15.7043L10.9827 15.4443C10.9144 15.8324 10.9167 16.2795 10.9167 16.9768L12.4167 16.9769ZM9 17.75C10.0353 17.75 10.9252 17.7501 11.6898 17.7265L11.6436 16.2272C10.907 16.2499 10.0428 16.25 9 16.25V17.75ZM11.6898 17.7265C13.3508 17.6753 14.583 17.5147 15.5784 16.8638L14.7575 15.6084C14.1447 16.009 13.2966 16.1762 11.6436 16.2272L11.6898 17.7265ZM1.75 9.8C1.75 8.86025 1.75012 8.0867 1.77517 7.42853L0.276257 7.37147C0.249884 8.06425 0.25 8.86947 0.25 9.8H1.75ZM1.77517 7.42853C1.83132 5.9535 2.01355 5.2388 2.43239 4.71996L1.26524 3.77776C0.51566 4.70629 0.333651 5.8638 0.276257 7.37147L1.77517 7.42853ZM1.02571 8.15H16.9743V6.65H1.02571V8.15ZM17.75 9.8C17.75 8.86947 17.7501 8.06425 17.7237 7.37147L16.2248 7.42853C16.2499 8.0867 16.25 8.86025 16.25 9.8H17.75ZM17.7237 7.37147C17.6663 5.8638 17.4843 4.70629 16.7348 3.77776L15.5676 4.71996C15.9864 5.2388 16.1687 5.9535 16.2248 7.42853L17.7237 7.37147ZM12.4167 3.4V2.62314H10.9167V3.4H12.4167ZM12.4167 2.62314V1H10.9167V2.62314H12.4167ZM9 3.35C10.0428 3.35 10.907 3.35008 11.6436 3.37279L11.6898 1.8735C10.9252 1.84992 10.0353 1.85 9 1.85V3.35ZM11.6436 3.37279C13.2966 3.42376 14.1447 3.59096 14.7575 3.99165L15.5784 2.73622C14.583 2.08533 13.3508 1.92472 11.6898 1.8735L11.6436 3.37279ZM7.08333 3.4V2.62314H5.58333V3.4H7.08333ZM7.08333 2.62314V1H5.58333V2.62314H7.08333ZM9 1.85C7.96469 1.85 7.07477 1.84992 6.31022 1.8735L6.35645 3.37279C7.09296 3.35008 7.95722 3.35 9 3.35V1.85ZM6.31022 1.8735C4.64919 1.92472 3.41702 2.08533 2.42161 2.73622L3.24252 3.99165C3.85529 3.59096 4.70337 3.42376 6.35645 3.37279L6.31022 1.8735Z" fill="#333333" fill-opacity="0.5"/>
</svg>
