<svg viewBox="0 0 15 19" fill="none" xmlns="http://www.w3.org/2000/svg">
<path d="M8.78204 11.1502L9.63494 8.2598C10.106 6.66349 9.06273 5.02268 7.30477 4.59495C5.54681 4.16722 3.73984 5.11454 3.2688 6.71085L1.13654 13.9368C0.665497 15.5331 1.70875 17.1739 3.46671 17.6016C4.27398 17.7981 5.09157 17.7045 5.7854 17.3913C6.2112 17.1991 6.59038 16.9242 6.89195 16.5828M6.45187 7.48532L5.59897 10.3757C5.12792 11.972 6.17118 13.6128 7.92914 14.0405C9.6871 14.4683 11.4941 13.521 11.9651 11.9246L14.0974 4.69871C14.5684 3.1024 13.5252 1.46159 11.7672 1.03386C10.9599 0.837441 10.1423 0.930981 9.44851 1.24417C9.02271 1.43637 8.64353 1.7113 8.34196 2.0527" stroke="#333333" stroke-opacity="0.5" stroke-width="1.5" stroke-linecap="round" fill="double-clip"/>
</svg>
