<svg width="23" height="23" viewBox="0 0 23 23" fill="none" xmlns="http://www.w3.org/2000/svg">
<path d="M6.70703 16.3043L10.9362 16.2899L20.1668 7.14738C20.5291 6.78513 20.7284 6.30405 20.7284 5.7923C20.7284 5.28055 20.5291 4.79946 20.1668 4.43721L18.6469 2.9173C17.9224 2.1928 16.6584 2.19663 15.9396 2.91442L6.70703 12.0588V16.3043ZM17.2918 4.27238L18.8146 5.78942L17.2842 7.30551L15.7642 5.78655L17.2918 4.27238ZM8.6237 12.8581L14.4024 7.13396L15.9224 8.65388L10.1446 14.3761L8.6237 14.3809V12.8581Z" fill="white"/>
<path d="M4.79167 20.125H18.2083C19.2654 20.125 20.125 19.2654 20.125 18.2083V9.9015L18.2083 11.8182V18.2083H7.81808C7.79317 18.2083 7.76729 18.2179 7.74238 18.2179C7.71075 18.2179 7.67912 18.2093 7.64654 18.2083H4.79167V4.79167H11.3534L13.27 2.875H4.79167C3.73462 2.875 2.875 3.73462 2.875 4.79167V18.2083C2.875 19.2654 3.73462 20.125 4.79167 20.125Z" fill="white"/>
</svg>
