<svg width="123" height="25" viewBox="0 0 123 25" fill="none" xmlns="http://www.w3.org/2000/svg">
<path d="M63.191 12.2735C62.1808 12.2735 61.4526 12.6 60.7141 12.9326V20.4583C61.4214 20.5247 61.8269 20.5247 62.4979 20.5247C64.9227 20.5247 65.2551 19.4304 65.2551 17.9025V14.3082C65.2551 13.1798 64.8752 12.2735 63.191 12.2735ZM47.0872 11.8628C45.4048 11.8628 45.0208 12.773 45.0208 13.9002V14.5336H49.1513V13.9002C49.1513 12.773 48.7673 11.8628 47.0872 11.8628ZM15.8908 19.696C15.8908 20.5878 16.3178 21.051 17.2601 21.051C18.2709 21.051 18.8694 20.7262 19.6073 20.3925V18.6073H17.3971C16.3506 18.6073 15.8908 18.7993 15.8908 19.696ZM78.8561 12.2735C77.1708 12.2735 76.587 13.1798 76.587 14.3082V18.4259C76.587 19.5571 77.1708 20.4661 78.8561 20.4661C80.5368 20.4661 81.1251 19.5571 81.1251 18.4259V14.3082C81.1246 13.1798 80.5362 12.2735 78.8561 12.2735ZM7.63216 24.3133H2.67834V12.4973H0.203125V8.42585H2.6789V5.98052C2.6789 2.6585 4.07591 0.683594 8.04667 0.683594H11.3526V4.75618H9.28626C7.74032 4.75618 7.63838 5.32538 7.63838 6.38733L7.63216 8.42529H11.3753L10.9375 12.4968H7.63216V24.3133ZM24.5622 24.344H20.4335L20.2551 23.3149C18.37 24.344 16.6875 24.5108 15.5776 24.5108C12.5497 24.5108 10.9381 22.5175 10.9381 19.7608C10.9381 16.5085 12.8187 15.3478 16.183 15.3478H19.6073V14.6447C19.6073 12.9845 19.4142 12.4973 16.8235 12.4973H12.5877L13.0016 8.42585H17.6315C23.3159 8.42585 24.5622 10.1954 24.5622 14.6776V24.344ZM38.602 12.7959C36.0328 12.3617 35.2949 12.2663 34.0588 12.2663C31.8384 12.2663 31.1673 12.749 31.1673 14.6073V18.1224C31.1673 19.9806 31.8384 20.4656 34.0588 20.4656C35.2949 20.4656 36.0328 20.3685 38.602 19.9327V23.9042C36.3516 24.4014 34.8855 24.532 33.6465 24.532C28.328 24.532 26.2141 21.7759 26.2141 17.7942V14.9421C26.2141 10.9571 28.328 8.19594 33.6465 8.19594C34.8855 8.19594 36.3516 8.32708 38.602 8.82652V12.7959ZM54.1045 17.7942H45.0202V18.1224C45.0202 19.9806 45.6919 20.4656 47.9117 20.4656C49.9072 20.4656 51.1253 20.3685 53.69 19.9327V23.9042C51.2165 24.4014 49.9276 24.532 47.5011 24.532C42.1821 24.532 40.067 21.7759 40.067 17.7942V14.5331C40.067 11.0492 41.6362 8.19594 47.0866 8.19594C52.5371 8.19594 54.1045 11.0163 54.1045 14.5331V17.7942ZM70.2078 17.8696C70.2078 21.7178 69.0917 24.5248 62.3303 24.5248C59.8885 24.5248 58.4564 24.3133 55.7615 23.9048V1.90682L60.7136 1.09264V8.78746C61.7838 8.39572 63.169 8.1965 64.4295 8.1965C69.3822 8.1965 70.2073 10.3846 70.2073 13.9008V17.8696H70.2078ZM86.0824 17.9533C86.0824 21.2731 84.6916 24.493 78.8725 24.493C73.0506 24.493 71.6337 21.2731 71.6337 17.9533V14.7479C71.6337 11.4264 73.0506 8.20598 78.8725 8.20598C84.6916 8.20598 86.0824 11.4264 86.0824 14.7479V17.9533ZM101.946 17.9533C101.946 21.2731 100.554 24.493 94.7357 24.493C88.9138 24.493 87.4969 21.2731 87.4969 17.9533V14.7479C87.4969 11.4264 88.9138 8.20598 94.7357 8.20598C100.554 8.20598 101.946 11.4264 101.946 14.7479V17.9533ZM118.226 24.3133H112.858L108.318 16.845V24.3133H103.365V1.90626L108.318 1.09208V15.5169L112.858 8.42585H118.226L113.27 16.1642L118.226 24.3133ZM94.7187 12.2735C93.0363 12.2735 92.4524 13.1798 92.4524 14.3082V18.4259C92.4524 19.5571 93.0363 20.4661 94.7187 20.4661C96.3989 20.4661 96.9935 19.5571 96.9935 18.4259V14.3082C96.9935 13.1798 96.3989 12.2735 94.7187 12.2735ZM121.054 21.5264C121.888 21.5264 122.552 22.1966 122.552 23.0337C122.552 23.8836 121.887 24.5465 121.047 24.5465C120.212 24.5465 119.534 23.8836 119.534 23.0337C119.534 22.1966 120.212 21.5264 121.047 21.5264H121.054ZM121.047 21.7608C120.375 21.7608 119.825 22.3306 119.825 23.0337C119.825 23.7497 120.376 24.3122 121.054 24.3122C121.732 24.3189 122.274 23.7497 122.274 23.0404C122.274 22.3311 121.732 21.7608 121.054 21.7608H121.047ZM120.763 23.9109H120.491V22.229C120.633 22.2095 120.769 22.1899 120.973 22.1899C121.231 22.1899 121.4 22.2435 121.504 22.3166C121.604 22.3908 121.658 22.5041 121.658 22.6643C121.658 22.8864 121.509 23.0197 121.327 23.0739V23.0867C121.475 23.114 121.577 23.2469 121.611 23.4941C121.651 23.7558 121.692 23.8557 121.719 23.9104H121.434C121.394 23.8557 121.353 23.7022 121.319 23.4807C121.279 23.2669 121.169 23.1866 120.952 23.1866H120.763V23.9109H120.763ZM120.763 22.9801H120.96C121.183 22.9801 121.372 22.8992 121.372 22.691C121.372 22.5437 121.265 22.397 120.96 22.397C120.871 22.397 120.809 22.4037 120.763 22.4098V22.9801Z" fill="#D0D2DA"/>
</svg>
