<svg width="107" height="35" viewBox="0 0 107 35" fill="none" xmlns="http://www.w3.org/2000/svg">
<g clip-path="url(#clip0_2_7277)">
<path d="M13.115 0.208984H14.062C17.3495 0.278858 20.5835 1.57153 22.9062 3.85991C22.0486 4.71586 21.1731 5.53688 20.3333 6.39284C19.029 5.23992 17.4567 4.34902 15.7415 4.03459C13.2043 3.51053 10.4707 3.98218 8.34447 5.39714C6.02175 6.88196 4.44944 9.39743 4.10996 12.0876C3.73475 14.7428 4.50304 17.5378 6.27188 19.599C7.96926 21.6079 10.56 22.8657 13.2401 22.953C15.7415 23.0927 18.3501 22.3416 20.1725 20.6297C21.6019 19.4244 22.263 17.5902 22.4774 15.8084C19.5114 15.8084 16.5455 15.8258 13.5795 15.8084V12.2099H26.0687C26.7119 16.0704 25.7828 20.4201 22.7811 23.1801C20.78 25.1366 18.0106 26.2895 15.1876 26.5166C12.4539 26.7786 9.63091 26.272 7.20098 24.9793C4.28863 23.4596 1.96591 20.8917 0.822408 17.8697C-0.24962 15.0922 -0.267487 11.9478 0.733073 9.15287C1.6443 6.60246 3.39528 4.34902 5.64654 2.77686C7.80846 1.22216 10.4349 0.366201 13.115 0.208984Z" fill="#D0D2DA"/>
<path d="M84.7617 1.11719H88.5853V26.0622C87.3167 26.0622 86.0303 26.0797 84.7617 26.0448C84.7796 17.7472 84.7617 9.4322 84.7617 1.11719Z" fill="#D0D2DA"/>
<path d="M34.5733 9.76433C36.9318 9.32762 39.4868 9.81674 41.4343 11.1968C43.2031 12.4195 44.436 14.3411 44.8112 16.4373C45.2936 18.8654 44.6861 21.5206 43.0781 23.4422C41.3449 25.5908 38.5041 26.7437 35.7347 26.569C33.1975 26.4293 30.7319 25.189 29.231 23.1627C27.5336 20.9267 27.1227 17.8523 28.0518 15.232C28.9809 12.4195 31.6074 10.2709 34.5733 9.76433ZM35.1093 13.0834C34.1445 13.3279 33.2511 13.8694 32.6079 14.638C30.8748 16.6644 30.982 19.9659 32.8938 21.8525C33.9837 22.9356 35.6275 23.4422 37.1462 23.1452C38.5577 22.9007 39.7905 21.9748 40.4695 20.752C41.6487 18.6733 41.3092 15.8084 39.5046 14.1839C38.3433 13.1358 36.6459 12.699 35.1093 13.0834Z" fill="#D0D2DA"/>
<path d="M53.511 9.76367C56.209 9.25708 59.157 9.99076 61.176 11.8424C64.4636 14.7247 64.8209 20.1225 62.0158 23.4415C60.3184 25.5377 57.5669 26.6907 54.8511 26.5684C52.2603 26.4985 49.7053 25.2408 48.1688 23.162C46.4357 20.8736 46.0604 17.7293 47.0431 15.0566C48.0258 12.3315 50.5987 10.2528 53.511 9.76367ZM54.047 13.0827C53.0822 13.3272 52.1889 13.8688 51.5457 14.6199C49.8304 16.6113 49.9019 19.8605 51.7422 21.7645C52.8321 22.9 54.5295 23.459 56.1018 23.1446C57.4954 22.8825 58.7461 21.9742 59.4251 20.7514C60.5864 18.6551 60.2469 15.7903 58.4245 14.1657C57.2631 13.1176 55.5658 12.6984 54.047 13.0827Z" fill="#D0D2DA"/>
<path d="M69.5746 10.7774C71.6293 9.51965 74.363 9.17028 76.5785 10.2533C77.2753 10.5503 77.847 11.0569 78.4009 11.5635C78.4188 11.0918 78.4009 10.6027 78.4188 10.1136C79.6159 10.131 80.813 10.1136 82.028 10.131V25.5383C82.0101 27.8616 81.4026 30.3247 79.6874 32.0191C77.8113 33.8882 74.9347 34.4647 72.344 34.0804C69.5746 33.6786 67.1625 31.7047 66.0905 29.2067C67.1625 28.7001 68.2881 28.2983 69.3959 27.8267C70.0212 29.2591 71.2898 30.4819 72.88 30.7614C74.4702 31.0409 76.3105 30.6566 77.3468 29.3639C78.4545 28.0363 78.4545 26.2196 78.4009 24.595C77.579 25.3811 76.6321 26.0798 75.4886 26.3418C73.005 27.0231 70.2714 26.1846 68.3596 24.5426C66.4299 22.9005 65.2864 20.3676 65.3936 17.8521C65.4472 15.0048 67.091 12.2622 69.5746 10.7774ZM73.2731 13.0134C72.1832 13.188 71.1647 13.782 70.4679 14.603C68.7884 16.5595 68.7884 19.6863 70.4858 21.6079C71.4506 22.7433 73.005 23.3722 74.5059 23.215C75.9174 23.0752 77.2217 22.2018 77.9185 20.9965C79.0977 18.9526 78.9012 16.1752 77.311 14.3934C76.3283 13.2928 74.756 12.7513 73.2731 13.0134Z" fill="#D0D2DA"/>
<path d="M93.1758 11.6675C95.3199 9.71099 98.6253 9.04719 101.377 10.0778C103.985 11.0386 105.647 13.4667 106.487 15.9647C102.61 17.5369 98.7504 19.0916 94.8732 20.6638C95.4092 21.6595 96.2311 22.5678 97.3389 22.9347C98.8933 23.4762 100.752 23.284 102.056 22.2709C102.574 21.8866 102.985 21.38 103.378 20.8909C104.361 21.5372 105.343 22.1661 106.326 22.8124C104.932 24.8562 102.592 26.2886 100.073 26.5157C97.2853 26.8476 94.3193 25.7995 92.5147 23.6683C89.5488 20.3144 89.8347 14.6895 93.1758 11.6675ZM95.0876 14.8991C94.4801 15.7551 94.23 16.8032 94.2479 17.8339C96.8386 16.7857 99.4293 15.7376 102.02 14.6721C101.591 13.6938 100.555 13.0999 99.5008 12.9427C97.8034 12.6457 96.0346 13.5366 95.0876 14.8991Z" fill="#D0D2DA"/>
</g>
<defs>
<clipPath id="clip0_2_7277">
<rect width="106.488" height="33.9823" fill="white" transform="translate(0 0.205078)"/>
</clipPath>
</defs>
</svg>
