<svg width="83" height="32" viewBox="0 0 83 32" fill="none" xmlns="http://www.w3.org/2000/svg">
<path d="M66.1491 9.87925V0H68.202V8.49242C67.6335 8.7729 66.8597 9.3027 66.1491 9.87925ZM62.5801 12.8555C63.2118 12.1075 63.8593 11.3596 64.6331 10.7207V0H62.5801V12.8555ZM38.7976 20.709C38.7976 23.3425 39.8556 25.8512 41.798 27.7679C43.7246 29.6689 46.2671 30.7285 48.9517 30.7285C50.0887 30.7285 51.2573 30.4948 52.0785 30.0896V28.0639C51.1152 28.4691 49.9466 28.7028 48.9517 28.7028C44.5616 28.7028 40.8663 25.0565 40.8663 20.7246V18.9015C40.8663 14.5696 44.5774 10.9233 48.9517 10.9233C51.131 10.9233 53.1682 11.7491 54.6842 13.2451C56.2002 14.741 57.0372 16.7511 57.0372 18.9015V30.7441H59.0901V18.5119C58.9638 15.9252 57.8426 13.51 55.9475 11.7024C54.0367 9.89483 51.5574 8.89756 48.9517 8.89756C46.2829 8.89756 43.7404 9.94158 41.798 11.8582C39.8714 13.7593 38.7976 16.268 38.7976 18.9171V20.709ZM69.5285 15.8473C70.4603 14.928 71.6604 14.4137 72.8448 14.4137C75.3873 14.4137 77.3613 16.3771 77.3613 18.8703V20.6935C77.3613 23.2022 75.3715 25.15 72.8448 25.15C71.6131 25.15 70.4287 24.48 69.4969 23.2801C68.6758 22.2205 68.1388 20.7714 68.0599 19.478L66.4017 21.5037C66.7334 23.0308 67.5388 24.5111 68.6916 25.5396C69.876 26.5992 71.3604 27.1913 72.8448 27.1913C76.477 27.1913 79.43 24.2774 79.43 20.709V18.8859C79.43 17.1874 78.7352 15.5668 77.4718 14.3358C76.2085 13.0892 74.5661 12.4036 72.8448 12.4036C71.7552 12.4036 70.0339 12.7932 67.9809 14.6163C67.4282 15.1617 66.1333 16.4395 65.3437 17.3432C64.0172 18.7768 62.1064 20.9116 60.464 23.0776V26.2408C62.2801 23.9346 63.3223 22.6413 65.0436 20.6935C66.5597 18.9171 68.4547 16.7823 69.5285 15.8473ZM21.0159 12.0296V9.62993C19.1525 8.64824 17.1311 8.21193 14.4465 8.21193C11.6987 8.21193 9.09306 9.20921 7.11908 11.0012C5.1293 12.8087 4.03966 15.1773 4.03966 17.7016V18.3561C4.03966 23.5918 8.28768 27.8458 13.5306 27.8458C17.7786 27.8458 19.5315 26.4745 19.9737 26.0382V19.9455H13.0252V21.9712H18.0471V25.0254H18.0313C17.3838 25.2747 16.0415 25.8045 13.5306 25.8045C11.5408 25.8045 9.66157 25.0409 8.27189 23.6385C6.86641 22.2361 6.1084 20.3662 6.1084 18.3405V17.686C6.1084 13.6502 9.93003 10.2221 14.4623 10.2221C17.5733 10.2376 19.4367 10.7519 21.0159 12.0296ZM35.9866 14.4137C36.7604 14.4137 37.4237 14.5384 37.9606 14.7877C38.2133 14.1644 38.4817 13.6346 38.8607 13.0113C38.308 12.6218 36.9657 12.3724 35.9866 12.3724C32.2439 12.3724 29.4172 15.1617 29.4172 18.8703V30.7129H31.4701V18.8703C31.4701 16.2525 33.3178 14.4137 35.9866 14.4137ZM0.470703 17.7016V18.3561C0.470703 21.8777 1.8288 25.15 4.27654 27.5965C6.72428 30.0273 10.009 31.3674 13.5148 31.3674C16.3415 31.3674 18.8366 30.7441 20.9528 29.4975C22.6899 28.4691 23.4637 27.4406 23.5268 27.3471V16.4394H13.0252V18.4652H21.4739V26.7394C20.479 27.7211 18.126 29.3573 13.5306 29.3573C10.5301 29.3573 7.75075 28.2198 5.69781 26.1629C3.66066 24.1216 2.53944 21.3479 2.53944 18.3717V17.7172C2.53944 14.8968 3.81858 12.092 6.06102 10.0195C8.35084 7.90029 11.3355 6.7316 14.4623 6.7316C17.3838 6.7316 19.4051 7.16791 21.0317 8.1496V5.85899C19.3262 5.1422 17.289 4.83055 14.4465 4.83055C6.86641 4.83055 0.470703 10.7207 0.470703 17.7016ZM55.5054 30.7129V18.8703C55.5054 15.224 52.6154 12.3724 48.9201 12.3724C47.1988 12.3724 45.5565 13.0581 44.2931 14.3047C43.0298 15.5513 42.3349 17.1718 42.3349 18.8547V20.6779C42.3349 24.1995 45.3512 27.1602 48.9044 27.1602C49.8835 27.1602 51.21 26.9264 52.0311 26.2564V24.1527C51.2258 24.7916 50.073 25.1656 48.9044 25.1656C46.3777 25.1656 44.3879 23.2022 44.3879 20.709V18.8859C44.3879 16.3771 46.3777 14.4293 48.9044 14.4293C51.4468 14.4293 53.4208 16.3927 53.4208 18.8859V30.7285H55.5054V30.7129ZM35.9866 10.8921C37.3763 10.8921 38.5923 11.1882 39.6819 11.7959C40.1872 11.157 40.7084 10.6584 41.1032 10.2688C39.9504 9.3962 37.9922 8.8664 36.0024 8.8664C33.1441 8.8664 30.5542 9.87925 28.7066 11.7336C26.8747 13.5567 25.864 16.0966 25.864 18.8859V30.7285H27.917V18.8859C27.9012 14.18 31.2175 10.8921 35.9866 10.8921ZM79.9985 11.8271C78.0719 9.926 75.5294 8.8664 72.8448 8.8664C70.8866 8.8664 68.9284 9.58319 67.8388 10.3C65.5964 11.7647 63.7645 13.3697 60.4482 17.5925V20.6311C63.2592 17.016 65.9122 14.18 67.9336 12.6062C69.2601 11.5622 71.1393 10.9077 72.8448 10.9077C77.235 10.9077 80.9303 14.5696 80.9303 18.8859V20.709C80.9303 22.8438 80.0775 24.854 78.5299 26.3654C76.9981 27.8614 74.9767 28.6872 72.8448 28.6872C69.2443 28.6872 66.0701 26.2408 65.2174 22.9217L63.7645 24.6514C64.8226 28.1418 68.6442 30.7129 72.8448 30.7129C75.5294 30.7129 78.0561 29.6533 79.9985 27.7523C81.9251 25.8356 82.999 23.3425 82.999 20.6935V18.8703C82.999 16.2369 81.9251 13.7281 79.9985 11.8271Z" fill="#D0D2DA"/>
</svg>
