<svg width="25" height="16" viewBox="0 0 25 16" fill="none" xmlns="http://www.w3.org/2000/svg">
<path d="M0.155129 1.33333C0.155129 0.596954 0.752082 0 1.48846 0H23.6667C24.403 0 25 0.596954 25 1.33333C25 2.06971 24.403 2.66667 23.6667 2.66667H1.48846C0.752084 2.66667 0.155129 2.06971 0.155129 1.33333ZM0 8C0 7.26362 0.596954 6.66667 1.33333 6.66667H23.6667C24.403 6.66667 25 7.26362 25 8C25 8.73638 24.403 9.33333 23.6667 9.33333H1.33333C0.596954 9.33333 0 8.73638 0 8ZM0 14.6667C0 13.9303 0.596953 13.3333 1.33333 13.3333H23.6667C24.403 13.3333 25 13.9303 25 14.6667C25 15.403 24.403 16 23.6667 16H1.33333C0.596953 16 0 15.403 0 14.6667Z" fill="#151D48"/>
</svg>
