<svg width="63" height="66" viewBox="0 0 63 66" fill="none" xmlns="http://www.w3.org/2000/svg">
<path d="M42.2575 24.3562C37.1869 19.3744 29.1414 19.3744 24.0955 24.3562C19.0742 29.4204 19.1646 37.6601 24.153 42.7243C29.1414 47.7886 37.3184 47.8463 42.3397 42.7821C42.4219 42.6996 42.7752 42.3202 43.4163 41.6356L37.3759 35.5156C36.776 36.2579 36.4144 36.6373 36.3816 36.6373C34.6722 38.3529 31.9109 38.3529 30.2015 36.6373C28.4922 34.9218 28.4922 32.1175 30.144 30.4349C31.7959 28.7771 34.5654 28.7771 36.2912 30.4926C36.2912 30.4926 41.6987 35.9198 52.4808 46.7988C48.0431 53.2569 40.6057 57.3397 32.6012 57.3397C19.3454 57.3397 8.57148 46.4359 8.57148 32.967C8.57148 19.4981 19.3536 8.61085 32.6012 8.61085C40.3427 8.61085 47.4513 12.3554 51.8645 18.4754C51.1495 19.3002 49.3333 21.3952 46.3994 24.7603L52.3822 30.7648L62.2932 19.4981C57.1323 7.77781 45.5612 0 32.5684 0C14.5954 0 0 14.7886 0 32.9835C0 51.1785 14.5625 66 32.5684 66C40.7454 66 47.5253 63.4019 54.1409 57.7108C60.1483 52.5641 63 45.4049 63 45.4049L42.2575 24.3562Z" fill="url(#paint0_linear_1527_1659)"/>
<defs>
<linearGradient id="paint0_linear_1527_1659" x1="66.2651" y1="63.4654" x2="-13.5342" y2="-14.1522" gradientUnits="userSpaceOnUse">
<stop stop-color="white"/>
<stop offset="1" stop-color="white"/>
</linearGradient>
</defs>
</svg>
