<svg width="17" height="16" viewBox="0 0 17 16" fill="none" xmlns="http://www.w3.org/2000/svg">
<path fill-rule="evenodd" clip-rule="evenodd" d="M5.96875 0H11.9688C14.7297 0 16.9688 2.239 16.9688 5V11C16.9688 13.761 14.7297 16 11.9688 16H5.96875C3.20775 16 0.96875 13.761 0.96875 11V5C0.96875 2.239 3.20775 0 5.96875 0ZM11.9688 14.5C13.8988 14.5 15.4688 12.93 15.4688 11V5C15.4688 3.07 13.8988 1.5 11.9688 1.5H5.96875C4.03875 1.5 2.46875 3.07 2.46875 5V11C2.46875 12.93 4.03875 14.5 5.96875 14.5H11.9688Z" fill="#151D48"/>
<path fill-rule="evenodd" clip-rule="evenodd" d="M4.96875 8C4.96875 5.791 6.75975 4 8.96875 4C11.1778 4 12.9688 5.791 12.9688 8C12.9688 10.209 11.1778 12 8.96875 12C6.75975 12 4.96875 10.209 4.96875 8ZM6.46875 8C6.46875 9.378 7.59075 10.5 8.96875 10.5C10.3468 10.5 11.4688 9.378 11.4688 8C11.4688 6.621 10.3468 5.5 8.96875 5.5C7.59075 5.5 6.46875 6.621 6.46875 8Z" fill="#151D48"/>
<circle cx="13.2693" cy="3.69999" r="0.533" fill="#151D48"/>
</svg>
