<svg width="15" height="13" viewBox="0 0 15 13" fill="none" xmlns="http://www.w3.org/2000/svg">
<path d="M0 6.49995L3.74968 9.83291V7.33319H10.4991V5.66671H3.74968V3.16699L0 6.49995Z" fill="#333333" fill-opacity="0.75"/>
<path d="M8.55607 2.48136e-05C7.70952 -0.00234287 6.87092 0.164753 6.08885 0.491632C5.30678 0.818511 4.59679 1.29868 4 1.90431L5.0123 2.92542C5.95874 1.97075 7.21731 1.44431 8.55607 1.44431C9.89483 1.44431 11.1534 1.97075 12.0998 2.92542C13.0463 3.88009 13.5682 5.14961 13.5682 6.50001C13.5682 7.85042 13.0463 9.11994 12.0998 10.0746C11.1534 11.0293 9.89483 11.5557 8.55607 11.5557C7.21731 11.5557 5.95874 11.0293 5.0123 10.0746L4 11.0957C5.21634 12.3234 6.8343 13 8.55607 13C10.2778 13 11.8958 12.3234 13.1121 11.0957C14.3292 9.8688 15 8.23676 15 6.50001C15 4.76326 14.3292 3.13123 13.1121 1.90431C12.5154 1.29868 11.8054 0.818511 11.0233 0.491632C10.2412 0.164753 9.40262 -0.00234287 8.55607 2.48136e-05Z" fill="#333333" fill-opacity="0.75"/>
</svg>
