<svg width="18" height="16" viewBox="0 0 18 16" fill="none" xmlns="http://www.w3.org/2000/svg">
<path d="M2.86119 4.96036L2.50764 5.31392L2.86119 4.96036ZM1.31131 3.41048L1.66486 3.05693L1.65531 3.04738L1.64526 3.03836L1.31131 3.41048ZM15.7742 3.41048L16.1277 3.76403L15.7742 3.41048ZM14.2243 4.96036L14.5778 5.31392L14.2243 4.96036ZM2.16387 14.6956L2.45776 14.2911L2.16387 14.6956ZM1.27508 13.8068L1.67959 13.5129L1.27508 13.8068ZM15.8104 13.8068L15.4059 13.5129L15.8104 13.8068ZM14.9216 14.6956L14.6277 14.2911L14.9216 14.6956ZM14.9216 1.76727L14.6277 2.17178L14.9216 1.76727ZM15.8104 2.65606L15.4059 2.94995L15.8104 2.65606ZM2.16387 1.76727L2.45776 2.17178L2.16387 1.76727ZM1.27508 2.65606L0.870571 2.36217L1.27508 2.65606ZM0.996374 3.12785L0.544256 2.91433L0.996374 3.12785ZM16.0787 3.10598L16.5291 2.88893L16.0787 3.10598ZM3.21474 4.60681L1.66486 3.05693L0.957752 3.76403L2.50764 5.31392L3.21474 4.60681ZM15.4206 3.05693L13.8707 4.60681L14.5778 5.31392L16.1277 3.76403L15.4206 3.05693ZM2.50764 5.31392C3.8368 6.64308 4.86848 7.67626 5.77901 8.37097C6.70107 9.07448 7.55742 9.47783 8.54274 9.47783V8.47783C7.86398 8.47783 7.2187 8.21159 6.38559 7.57595C5.54094 6.9315 4.56389 5.95596 3.21474 4.60681L2.50764 5.31392ZM13.8707 4.60681C12.5216 5.95596 11.5445 6.9315 10.6999 7.57595C9.86678 8.21159 9.22151 8.47783 8.54274 8.47783V9.47783C9.52807 9.47783 10.3844 9.07448 11.3065 8.37097C12.217 7.67626 13.2487 6.64308 14.5778 5.31392L13.8707 4.60681ZM7.73925 1.5H9.34624V0.5H7.73925V1.5ZM9.34624 14.9629H7.73925V15.9629H9.34624V14.9629ZM7.73925 14.9629C6.22167 14.9629 5.12365 14.9622 4.27161 14.8699C3.42892 14.7786 2.88635 14.6025 2.45776 14.2911L1.86998 15.1001C2.49744 15.556 3.23612 15.7635 4.16389 15.8641C5.0823 15.9636 6.24395 15.9629 7.73925 15.9629V14.9629ZM0.0078125 8.23144C0.0078125 9.72674 0.00712621 10.8884 0.10663 11.8068C0.207147 12.7346 0.41469 13.4732 0.870571 14.1007L1.67959 13.5129C1.3682 13.0843 1.19211 12.5418 1.10081 11.6991C1.0085 10.847 1.00781 9.74902 1.00781 8.23144H0.0078125ZM2.45776 14.2911C2.15915 14.0741 1.89654 13.8115 1.67959 13.5129L0.870571 14.1007C1.14921 14.4842 1.48647 14.8215 1.86998 15.1001L2.45776 14.2911ZM16.0777 8.23144C16.0777 9.74902 16.077 10.847 15.9847 11.6991C15.8934 12.5418 15.7173 13.0843 15.4059 13.5129L16.2149 14.1007C16.6708 13.4732 16.8783 12.7346 16.9789 11.8068C17.0784 10.8884 17.0777 9.72674 17.0777 8.23144H16.0777ZM9.34624 15.9629C10.8415 15.9629 12.0032 15.9636 12.9216 15.8641C13.8494 15.7635 14.588 15.556 15.2155 15.1001L14.6277 14.2911C14.1991 14.6025 13.6566 14.7786 12.8139 14.8699C11.9618 14.9622 10.8638 14.9629 9.34624 14.9629V15.9629ZM15.4059 13.5129C15.1889 13.8115 14.9263 14.0741 14.6277 14.2911L15.2155 15.1001C15.599 14.8215 15.9363 14.4842 16.2149 14.1007L15.4059 13.5129ZM9.34624 1.5C10.8638 1.5 11.9618 1.50069 12.8139 1.593C13.6566 1.6843 14.1991 1.86039 14.6277 2.17178L15.2155 1.36276C14.588 0.906878 13.8494 0.699335 12.9216 0.598817C12.0032 0.499314 10.8415 0.5 9.34624 0.5V1.5ZM14.6277 2.17178C14.9263 2.38873 15.1889 2.65134 15.4059 2.94995L16.2149 2.36217C15.9363 1.97866 15.599 1.64139 15.2155 1.36276L14.6277 2.17178ZM7.73925 0.5C6.24395 0.5 5.0823 0.499314 4.16389 0.598817C3.23612 0.699335 2.49744 0.906878 1.86998 1.36276L2.45776 2.17178C2.88635 1.86039 3.42892 1.6843 4.27161 1.593C5.12365 1.50069 6.22167 1.5 7.73925 1.5V0.5ZM1.86998 1.36276C1.48647 1.64139 1.14921 1.97866 0.870571 2.36217L1.67959 2.94995C1.89654 2.65134 2.15915 2.38873 2.45776 2.17178L1.86998 1.36276ZM1.00781 8.23144C1.00781 6.92837 1.00813 5.93247 1.06751 5.13259C1.12682 4.33372 1.24272 3.77708 1.44849 3.34136L0.544256 2.91433C0.261466 3.51313 0.133085 4.21227 0.070255 5.05855C0.00749922 5.90384 0.0078125 6.94247 0.0078125 8.23144H1.00781ZM1.44849 3.34136C1.51487 3.2008 1.59128 3.0715 1.67959 2.94995L0.870571 2.36217C0.744532 2.53564 0.636525 2.71895 0.544256 2.91433L1.44849 3.34136ZM1.64526 3.03836L1.33033 2.75573L0.662417 3.49996L0.977349 3.7826L1.64526 3.03836ZM17.0777 8.23144C17.0777 6.93346 17.078 5.88923 17.0139 5.0405C16.9497 4.19058 16.8184 3.48932 16.5291 2.88893L15.6282 3.32302C15.8379 3.75819 15.9562 4.31449 16.0167 5.11583C16.0773 5.91835 16.0777 6.91906 16.0777 8.23144H17.0777ZM16.5291 2.88893C16.4395 2.70299 16.3354 2.52806 16.2149 2.36217L15.4059 2.94995C15.4904 3.06624 15.5639 3.18958 15.6282 3.32302L16.5291 2.88893ZM16.1277 3.76403L16.4322 3.45953L15.7251 2.75242L15.4206 3.05693L16.1277 3.76403Z" fill="#151D48"/>
</svg>
