<svg width="97" height="27" viewBox="0 0 97 27" fill="none" xmlns="http://www.w3.org/2000/svg">
<g clip-path="url(#clip0_2_7288)">
<path d="M91.0369 12.9757L96.1592 26.2042C94.6496 25.9939 93.1408 25.7305 91.6046 25.4931L88.719 18.1839L85.7541 24.8898C84.2989 24.6524 82.8695 24.5734 81.4141 24.3891L86.6168 12.8184L81.898 0.958984H86.2656L88.907 7.58503L91.7382 0.958984H96.1584L91.0369 12.9757ZM78.4493 0.958984H74.4863V23.8901C75.7803 23.9692 77.1277 24.0213 78.4493 24.1787V0.958984ZM71.0625 23.6267C67.4507 23.3902 63.8379 23.1807 60.1449 23.1008V0.959086H64.1882V19.3669C66.5069 19.4192 68.8248 19.6026 71.0625 19.7078V23.6267ZM55.8309 9.92691V13.871H50.3048V22.8382H46.316V0.958984H57.6381V4.90312H50.3057V9.92701L55.8309 9.92691ZM39.5218 4.90312V23.0486C38.1735 23.0486 36.7994 23.0486 35.4778 23.1008V4.90312H31.2992V0.958984H43.7262V4.90312H39.5218ZM26.9326 14.0806C25.1538 14.0806 23.0506 14.0806 21.541 14.1606V20.0242C23.9133 19.866 26.2855 19.6825 28.6844 19.6035V23.3902L17.4978 24.2587V0.958984H28.6837V4.90312H21.5409V10.2155C23.1049 10.2155 25.5039 10.1365 26.9324 10.1365L26.9326 14.0806ZM4.52972 11.8716V25.6513C3.07532 25.8095 1.78046 25.9938 0.40625 26.2042V0.958984H4.26144L9.51761 15.2917V0.958984H13.5616V24.5734C12.133 24.8107 10.677 24.8898 9.1406 25.0994L4.52972 11.8716Z" fill="currentColor"/>
</g>
<defs>
<clipPath id="clip0_2_7288">
<rect width="95.753" height="25.2947" fill="white" transform="translate(0.40625 0.933594)"/>
</clipPath>
</defs>
</svg>
