<svg width="15" height="17" viewBox="0 0 15 17" fill="none" xmlns="http://www.w3.org/2000/svg">
<path d="M1.38017 11.887L1.83004 11.6688H1.83004L1.38017 11.887ZM2.03015 8.45089L2.36924 8.81835L2.03015 8.45089ZM2.9516 5.93119L2.45546 5.9932L2.9516 5.93119ZM13.023 8.54844L13.3632 8.18206V8.18206L13.023 8.54844ZM13.5226 12.4374L13.1008 12.169L13.5226 12.4374ZM12.0147 5.84184L12.5108 5.90385V5.90385L12.0147 5.84184ZM12.9877 8.51569L12.6474 8.88206L12.6474 8.88206L12.9877 8.51569ZM1.46321 12.0582L1.01334 12.2764H1.01334L1.46321 12.0582ZM12.0666 5.42649L11.5705 5.36447V5.36447L12.0666 5.42649ZM2.88784 5.42109L3.38398 5.35907L2.88784 5.42109ZM4.76864 14.4069L4.33675 14.6588H4.33675L4.76864 14.4069ZM4.87913 13.604C4.73999 13.3654 4.43383 13.2849 4.19531 13.424C3.95678 13.5631 3.87621 13.8693 4.01535 14.1078L4.87913 13.604ZM11.3071 14.1078C11.4462 13.8693 11.3656 13.5631 11.1271 13.424C10.8886 13.2849 10.5824 13.3654 10.4433 13.604L11.3071 14.1078ZM10.5538 14.4069L10.9857 14.6588L10.5538 14.4069ZM6.7907 1.5H8.15898V0.5H6.7907V1.5ZM10.9386 13.3559H4.33321V14.3559H10.9386V13.3559ZM11.5705 5.36447L11.5185 5.77982L12.5108 5.90385L12.5627 5.4885L11.5705 5.36447ZM12.6474 8.88206L12.6827 8.91481L13.3632 8.18206L13.3279 8.14931L12.6474 8.88206ZM3.44774 5.86917L3.38398 5.35907L2.3917 5.48311L2.45546 5.9932L3.44774 5.86917ZM1.91308 11.84L1.83004 11.6688L0.930302 12.1052L1.01334 12.2764L1.91308 11.84ZM1.83004 11.6688C1.36188 10.7037 1.5809 9.54581 2.36924 8.81835L1.69107 8.08344C0.57879 9.10984 0.269766 10.7435 0.930302 12.1052L1.83004 11.6688ZM2.45546 5.9932C2.55287 6.77247 2.26822 7.55085 1.69107 8.08344L2.36924 8.81835C3.18355 8.06691 3.58518 6.96866 3.44774 5.86917L2.45546 5.9932ZM12.6827 8.91481C13.5891 9.75653 13.765 11.1255 13.1008 12.169L13.9445 12.7059C14.8677 11.2552 14.6232 9.35219 13.3632 8.18206L12.6827 8.91481ZM11.5185 5.77982C11.3741 6.93526 11.7942 8.08966 12.6474 8.88206L13.3279 8.14931C12.7103 7.57576 12.4063 6.74019 12.5108 5.90385L11.5185 5.77982ZM4.33321 13.3559C3.30273 13.3559 2.36282 12.7672 1.91308 11.84L1.01334 12.2764C1.63028 13.5483 2.91962 14.3559 4.33321 14.3559V13.3559ZM10.9386 14.3559C12.1567 14.3559 13.2904 13.7336 13.9445 12.7059L13.1008 12.169C12.6304 12.9082 11.8148 13.3559 10.9386 13.3559V14.3559ZM8.15898 1.5C10.2269 1.5 11.827 3.31247 11.5705 5.36447L12.5627 5.4885C12.8938 2.83965 10.8284 0.5 8.15898 0.5V1.5ZM6.7907 0.5C4.12412 0.5 2.06095 2.83712 2.3917 5.48311L3.38398 5.35907C3.12784 3.30994 4.72562 1.5 6.7907 1.5V0.5ZM5.20053 14.1549L4.87913 13.604L4.01535 14.1078L4.33675 14.6588L5.20053 14.1549ZM10.4433 13.604L10.1219 14.1549L10.9857 14.6588L11.3071 14.1078L10.4433 13.604ZM4.33675 14.6588C5.13509 16.0274 6.37181 16.7664 7.66121 16.7664C8.95062 16.7664 10.1873 16.0274 10.9857 14.6588L10.1219 14.1549C9.47395 15.2657 8.54124 15.7664 7.66121 15.7664C6.78119 15.7664 5.84848 15.2657 5.20053 14.1549L4.33675 14.6588Z" fill="#151D48"/>
</svg>
