<svg  viewBox="0 0 16 16" fill="none" xmlns="http://www.w3.org/2000/svg">
<path d="M1.37164 15.3334C1.27897 15.3332 1.18726 15.3146 1.10174 15.2789C1.01623 15.2432 0.938583 15.191 0.873242 15.1253C0.8079 15.0596 0.756141 14.9817 0.720921 14.8959C0.685701 14.8102 0.667709 14.7184 0.667972 14.6257V1.37441C0.667972 0.983415 0.982972 0.666748 1.37164 0.666748H14.6313C15.0196 0.666748 15.3346 0.983415 15.3346 1.37441V14.6257C15.3349 14.7184 15.3169 14.8102 15.2817 14.8959C15.2465 14.9817 15.1947 15.0596 15.1294 15.1253C15.064 15.191 14.9864 15.2432 14.9009 15.2789C14.8154 15.3146 14.7236 15.3332 14.631 15.3334H1.37164Z" stroke="currentColor" stroke-linecap="round" stroke-linejoin="round"/>
<path fill-rule="evenodd" clip-rule="evenodd" d="M12.8864 5.96235H11.2637C11.0476 5.96235 10.8404 6.04818 10.6876 6.20096C10.5349 6.35374 10.449 6.56096 10.449 6.77702V8.40702H12.8864L12.5297 10.851H10.449V15.3334H7.76802V10.851H5.55469V8.40735H7.73969L7.76802 6.08769L7.76002 5.25635C7.75733 4.9755 7.81033 4.6969 7.91595 4.43665C8.02157 4.1764 8.17772 3.93966 8.37538 3.74012C8.57303 3.54057 8.80827 3.38217 9.06751 3.27408C9.32674 3.16599 9.60482 3.11034 9.88569 3.11035H12.8864V5.96235Z" fill="currentColor"/>
</svg>
