<svg viewBox="0 0 19 18" fill="none" xmlns="http://www.w3.org/2000/svg">
<path d="M14.6518 3.5493C14.6518 5.50952 13.0627 7.09859 11.1025 7.09859C9.14228 7.09859 7.5532 5.50952 7.5532 3.5493C7.5532 1.58907 9.14228 0 11.1025 0C13.0627 0 14.6518 1.58907 14.6518 3.5493Z" fill="#333333"/>
<path d="M4.00391 14.1972C4.00391 12.237 5.59298 10.6479 7.5532 10.6479H14.6518C16.612 10.6479 18.2011 12.237 18.2011 14.1972C18.2011 16.1574 16.612 17.7465 14.6518 17.7465H7.5532C5.59298 17.7465 4.00391 16.1574 4.00391 14.1972Z" fill="#333333"/>
<path d="M6.88785 5.70605C6.77247 5.50008 6.55598 5.39011 6.33766 5.39011C5.42866 5.39011 4.69177 4.57123 4.69177 3.56108C4.69177 2.55094 5.42866 1.73205 6.33766 1.73205C6.55598 1.73205 6.77247 1.62209 6.88785 1.41611C6.89295 1.407 6.89809 1.39792 6.90325 1.38886C7.09535 1.0519 6.99802 0.574802 6.64123 0.531151C6.54155 0.518955 6.44026 0.512695 6.33766 0.512695C4.82266 0.512695 3.59451 1.8775 3.59451 3.56108C3.59451 5.24466 4.82266 6.60947 6.33766 6.60947C6.44026 6.60947 6.54155 6.60321 6.64123 6.59101C6.99802 6.54736 7.09535 6.07026 6.90325 5.73331C6.89809 5.72425 6.89295 5.71516 6.88785 5.70605Z" fill="#333333"/>
<path d="M3.26126 16.3509C3.17822 16.197 3.03164 16.0933 2.87012 16.0933H2.74314C1.83415 16.0933 1.09726 15.2745 1.09726 14.2643C1.09726 13.2542 1.83415 12.4353 2.74314 12.4353H2.87012C3.03164 12.4353 3.17822 12.3316 3.26126 12.1777C3.46396 11.8019 3.24399 11.2159 2.84972 11.2159H2.74314C1.22815 11.2159 0 12.5807 0 14.2643C0 15.9479 1.22815 17.3127 2.74314 17.3127H2.84972C3.24399 17.3127 3.46396 16.7267 3.26126 16.3509Z" fill="#333333"/>
<path d="M6.88785 5.70605C6.77247 5.50008 6.55598 5.39011 6.33766 5.39011C5.42866 5.39011 4.69177 4.57123 4.69177 3.56108C4.69177 2.55094 5.42866 1.73205 6.33766 1.73205C6.55598 1.73205 6.77247 1.62209 6.88785 1.41611C6.89295 1.407 6.89809 1.39792 6.90325 1.38886C7.09535 1.0519 6.99802 0.574802 6.64123 0.531151C6.54155 0.518955 6.44026 0.512695 6.33766 0.512695C4.82266 0.512695 3.59451 1.8775 3.59451 3.56108C3.59451 5.24466 4.82266 6.60947 6.33766 6.60947C6.44026 6.60947 6.54155 6.60321 6.64123 6.59101C6.99802 6.54736 7.09535 6.07026 6.90325 5.73331C6.89809 5.72425 6.89295 5.71516 6.88785 5.70605Z" stroke="#0074D1"/>
<path d="M3.26126 16.3509C3.17822 16.197 3.03164 16.0933 2.87012 16.0933H2.74314C1.83415 16.0933 1.09726 15.2745 1.09726 14.2643C1.09726 13.2542 1.83415 12.4353 2.74314 12.4353H2.87012C3.03164 12.4353 3.17822 12.3316 3.26126 12.1777C3.46396 11.8019 3.24399 11.2159 2.84972 11.2159H2.74314C1.22815 11.2159 0 12.5807 0 14.2643C0 15.9479 1.22815 17.3127 2.74314 17.3127H2.84972C3.24399 17.3127 3.46396 16.7267 3.26126 16.3509Z" stroke="#0074D1"/>
</svg>
