<svg width="16" height="16" viewBox="0 0 16 16" fill="none" xmlns="http://www.w3.org/2000/svg">
<path d="M11.715 4.169C11.715 5.15495 10.9157 5.95421 9.9298 5.95421V7.45421C11.7442 7.45421 13.215 5.98337 13.215 4.169H11.715ZM9.9298 5.95421C8.94385 5.95421 8.14459 5.15495 8.14459 4.169H6.64459C6.64459 5.98337 8.11543 7.45421 9.9298 7.45421V5.95421ZM8.14459 4.169C8.14459 3.18306 8.94385 2.38379 9.9298 2.38379V0.883789C8.11543 0.883789 6.64459 2.35463 6.64459 4.169H8.14459ZM9.9298 2.38379C10.9157 2.38379 11.715 3.18306 11.715 4.169H13.215C13.215 2.35463 11.7442 0.883789 9.9298 0.883789V2.38379ZM7.39459 9.98942H12.465V8.48942H7.39459V9.98942ZM12.465 13.5598H7.39459V15.0598H12.465V13.5598ZM7.39459 13.5598C6.40864 13.5598 5.60938 12.7606 5.60938 11.7746H4.10938C4.10938 13.589 5.58021 15.0598 7.39459 15.0598V13.5598ZM14.2502 11.7746C14.2502 12.7606 13.451 13.5598 12.465 13.5598V15.0598C14.2794 15.0598 15.7502 13.589 15.7502 11.7746H14.2502ZM12.465 9.98942C13.451 9.98942 14.2502 10.7887 14.2502 11.7746H15.7502C15.7502 9.96026 14.2794 8.48942 12.465 8.48942V9.98942ZM7.39459 8.48942C5.58021 8.48942 4.10938 9.96026 4.10938 11.7746H5.60938C5.60938 10.7887 6.40864 9.98942 7.39459 9.98942V8.48942Z"  fill="currentColor"/>
<path d="M6.33984 6.39886C6.20655 6.18474 5.95645 6.07042 5.70423 6.07042C4.65411 6.07042 3.80282 5.21913 3.80282 4.16901C3.80282 3.1189 4.65411 2.26761 5.70423 2.26761C5.95645 2.26761 6.20655 2.15329 6.33984 1.93917C6.34573 1.9297 6.35166 1.92025 6.35763 1.91083C6.57955 1.56054 6.46711 1.06456 6.05493 1.01919C5.93977 1.00651 5.82276 1 5.70423 1C3.95403 1 2.53521 2.41882 2.53521 4.16901C2.53521 5.91921 3.95403 7.33803 5.70423 7.33803C5.82276 7.33803 5.93977 7.33152 6.05493 7.31884C6.46711 7.27346 6.57955 6.77749 6.35763 6.4272C6.35166 6.41778 6.34573 6.40833 6.33984 6.39886Z"  fill="currentColor"/>
<path d="M3.76757 13.0988C3.67164 12.9387 3.50231 12.831 3.31571 12.831H3.16901C2.1189 12.831 1.26761 11.9797 1.26761 10.9296C1.26761 9.87946 2.1189 9.02817 3.16901 9.02817H3.31571C3.50231 9.02817 3.67164 8.92044 3.76757 8.76039C4.00174 8.36971 3.74762 7.76056 3.29213 7.76056H3.16901C1.41882 7.76056 0 9.17938 0 10.9296C0 12.6798 1.41882 14.0986 3.16901 14.0986H3.29213C3.74762 14.0986 4.00174 13.4894 3.76757 13.0988Z"  fill="currentColor"/>
</svg>
