<svg width="82" height="82" viewBox="0 0 82 82" fill="none" xmlns="http://www.w3.org/2000/svg">
<path d="M41 76.875C31.4854 76.875 22.3604 73.0953 15.6325 66.3675C8.90468 59.6396 5.125 50.5146 5.125 41C5.125 31.4854 8.90468 22.3604 15.6325 15.6325C22.3604 8.90468 31.4854 5.125 41 5.125C50.5146 5.125 59.6396 8.90468 66.3675 15.6325C73.0953 22.3604 76.875 31.4854 76.875 41C76.875 50.5146 73.0953 59.6396 66.3675 66.3675C59.6396 73.0953 50.5146 76.875 41 76.875ZM41 82C51.8739 82 62.3024 77.6804 69.9914 69.9914C77.6804 62.3024 82 51.8739 82 41C82 30.1261 77.6804 19.6976 69.9914 12.0086C62.3024 4.31963 51.8739 0 41 0C30.1261 0 19.6976 4.31963 12.0086 12.0086C4.31963 19.6976 0 30.1261 0 41C0 51.8739 4.31963 62.3024 12.0086 69.9914C19.6976 77.6804 30.1261 82 41 82Z" fill="#151D48"/>
<path d="M41 20.5C41.6796 20.5 42.3314 20.77 42.812 21.2505C43.2925 21.7311 43.5625 22.3829 43.5625 23.0625V38.4375H58.9375C59.6171 38.4375 60.2689 38.7075 60.7495 39.188C61.23 39.6686 61.5 40.3204 61.5 41C61.5 41.6796 61.23 42.3314 60.7495 42.812C60.2689 43.2925 59.6171 43.5625 58.9375 43.5625H43.5625V58.9375C43.5625 59.6171 43.2925 60.2689 42.812 60.7495C42.3314 61.23 41.6796 61.5 41 61.5C40.3204 61.5 39.6686 61.23 39.188 60.7495C38.7075 60.2689 38.4375 59.6171 38.4375 58.9375V43.5625H23.0625C22.3829 43.5625 21.7311 43.2925 21.2505 42.812C20.77 42.3314 20.5 41.6796 20.5 41C20.5 40.3204 20.77 39.6686 21.2505 39.188C21.7311 38.7075 22.3829 38.4375 23.0625 38.4375H38.4375V23.0625C38.4375 22.3829 38.7075 21.7311 39.188 21.2505C39.6686 20.77 40.3204 20.5 41 20.5Z" fill="#151D48"/>
</svg>
