<svg width="15" height="15" viewBox="0 0 15 15" fill="none" xmlns="http://www.w3.org/2000/svg">
<path d="M7.50005 4.68749C7.11466 4.68749 6.73304 4.76023 6.37699 4.90158C6.02093 5.04292 5.69741 5.25008 5.4249 5.51125C5.15239 5.77241 4.93622 6.08246 4.78874 6.42369C4.64126 6.76491 4.56535 7.13064 4.56535 7.49998C4.56535 7.86932 4.64126 8.23505 4.78874 8.57627C4.93622 8.9175 5.15239 9.22755 5.4249 9.48871C5.69741 9.74988 6.02093 9.95704 6.37699 10.0984C6.73304 10.2397 7.11466 10.3125 7.50005 10.3125C8.27838 10.3125 9.02483 10.0162 9.57519 9.48871C10.1256 8.96127 10.4347 8.2459 10.4347 7.49998C10.4347 6.75406 10.1256 6.03869 9.57519 5.51125C9.02483 4.9838 8.27838 4.68749 7.50005 4.68749ZM5.54358 7.49998C5.54358 7.25375 5.59419 7.00994 5.69251 6.78245C5.79083 6.55497 5.93494 6.34827 6.11662 6.17416C6.29829 6.00005 6.51397 5.86194 6.75134 5.76771C6.98871 5.67348 7.24312 5.62499 7.50005 5.62499C7.75697 5.62499 8.01138 5.67348 8.24875 5.76771C8.48612 5.86194 8.7018 6.00005 8.88348 6.17416C9.06515 6.34827 9.20926 6.55497 9.30758 6.78245C9.40591 7.00994 9.45651 7.25375 9.45651 7.49998C9.45651 7.99726 9.25039 8.47417 8.88348 8.8258C8.51657 9.17743 8.01893 9.37498 7.50005 9.37498C6.98116 9.37498 6.48352 9.17743 6.11662 8.8258C5.74971 8.47417 5.54358 7.99726 5.54358 7.49998ZM12.5282 12.7468L11.4012 12.2725C11.2408 12.2057 11.0664 12.1758 10.8918 12.1851C10.7172 12.1944 10.5473 12.2428 10.3956 12.3262C10.0911 12.495 9.89672 12.7931 9.85824 13.1287L9.72259 14.3037C9.70893 14.4218 9.65755 14.5329 9.5755 14.622C9.49344 14.711 9.3847 14.7736 9.26413 14.8012C8.10389 15.0663 6.8949 15.0663 5.73466 14.8012C5.61421 14.7735 5.50561 14.7109 5.42368 14.6218C5.34175 14.5328 5.29047 14.4217 5.27685 14.3037L5.1412 13.1306C5.12172 12.9655 5.06214 12.8071 4.96723 12.668C4.87232 12.529 4.74473 12.4132 4.59469 12.33C4.44481 12.2469 4.27665 12.1988 4.10379 12.1894C3.93092 12.1801 3.75818 12.2098 3.59951 12.2762L2.47258 12.7506C2.35866 12.7986 2.232 12.8114 2.11013 12.7873C1.98827 12.7632 1.87723 12.7034 1.79238 12.6162C0.981276 11.7832 0.377698 10.7849 0.0269995 9.69623C-0.00987602 9.5818 -0.00872137 9.45922 0.0303034 9.34546C0.0693283 9.23169 0.144293 9.13236 0.244819 9.06123L1.24066 8.35623C1.38085 8.25752 1.49484 8.12858 1.57341 7.97983C1.65197 7.83108 1.69291 7.6667 1.69291 7.49998C1.69291 7.33326 1.65197 7.16888 1.57341 7.02013C1.49484 6.87139 1.38085 6.74244 1.24066 6.64373L0.244819 5.94061C0.144163 5.86943 0.0691149 5.77 0.0300842 5.65611C-0.00894644 5.54221 -0.0100245 5.4195 0.0269995 5.30499C0.378424 4.21728 0.982442 3.22003 1.79369 2.38812C1.87861 2.301 1.98968 2.24132 2.11155 2.21736C2.23341 2.1934 2.36003 2.20633 2.47389 2.25437L3.59559 2.72749C3.7552 2.79332 3.92867 2.82244 4.10211 2.8125C4.27556 2.80256 4.44418 2.75385 4.59446 2.67027C4.74474 2.58668 4.87253 2.47054 4.96758 2.33115C5.06263 2.19175 5.12231 2.03296 5.14185 1.8675L5.27881 0.693748C5.2926 0.574343 5.34494 0.462043 5.42853 0.37252C5.51212 0.282997 5.62279 0.220718 5.7451 0.194375C6.31965 0.0718749 6.90593 0.00687498 7.50852 0C8.09677 0.00624998 8.6824 0.0718749 9.2563 0.194375C9.37874 0.220668 9.48954 0.283014 9.57315 0.372676C9.65677 0.462338 9.70902 0.574824 9.72259 0.694373L9.85889 1.86812C9.88828 2.12842 10.0169 2.36917 10.22 2.54424C10.4231 2.71931 10.6865 2.81639 10.9597 2.81687C11.1117 2.81687 11.2623 2.78624 11.4032 2.72687L12.5249 2.25374C12.6388 2.20571 12.7654 2.19277 12.8872 2.21674C13.0091 2.2407 13.1202 2.30037 13.2051 2.38749C14.0161 3.21944 14.6199 4.2167 14.9711 5.30436C15.0081 5.41872 15.007 5.54126 14.9681 5.65502C14.9292 5.76878 14.8544 5.86814 14.754 5.93936L13.7594 6.64373C13.4757 6.84373 13.3042 7.16186 13.3042 7.49998C13.3042 7.83748 13.4757 8.1556 13.7601 8.35623L14.7553 9.05998C14.9614 9.20623 15.0487 9.46123 14.9731 9.6956C14.6219 10.7831 14.0184 11.7804 13.2077 12.6125C13.1229 12.6997 13.0118 12.7595 12.89 12.7836C12.7681 12.8076 12.6414 12.7948 12.5275 12.7468H12.5282ZM8.97587 12.6231C9.13149 12.156 9.46271 11.7611 9.90519 11.515C10.1898 11.3578 10.509 11.2668 10.837 11.2493C11.165 11.2318 11.4928 11.2884 11.7938 11.4143L12.6703 11.7831C13.2333 11.1584 13.6691 10.438 13.9551 9.65935L13.1797 9.11123V9.1106C12.9157 8.92484 12.7009 8.68227 12.5526 8.40241C12.4043 8.12255 12.3267 7.81323 12.326 7.49936C12.326 6.85748 12.6501 6.26186 13.1784 5.88936L13.1797 5.88873L13.9538 5.34061C13.6676 4.5621 13.2316 3.84194 12.6684 3.21749L11.7991 3.58374L11.7977 3.58437C11.533 3.69687 11.248 3.75437 10.9591 3.75437C10.4453 3.75362 9.94987 3.5714 9.5675 3.24255C9.18513 2.91369 8.94269 2.46129 8.88653 1.97187V1.97062L8.78023 1.05812C8.36069 0.983241 7.93524 0.942885 7.50852 0.937498C7.0764 0.942707 6.64552 0.98306 6.22052 1.05812L6.11422 1.97124C6.07766 2.28285 5.96533 2.58188 5.78625 2.84431C5.60718 3.10674 5.36635 3.32525 5.08314 3.48227C4.79993 3.63928 4.48222 3.73043 4.15557 3.74838C3.82892 3.76633 3.50243 3.71058 3.20234 3.58562L2.33106 3.21812C1.76781 3.84255 1.33181 4.56271 1.04567 5.34124L1.82173 5.88936C2.08517 6.07528 2.29932 6.31795 2.44692 6.59777C2.59451 6.8776 2.6714 7.18675 2.6714 7.50029C2.6714 7.81384 2.59451 8.12299 2.44692 8.40281C2.29932 8.68264 2.08517 8.9253 1.82173 9.11123L1.04567 9.65998C1.33127 10.4397 1.76706 11.1612 2.33041 11.7868L3.20756 11.4181C3.50669 11.2926 3.83242 11.2363 4.15845 11.2536C4.48448 11.271 4.80169 11.3616 5.08446 11.5181C5.36712 11.6746 5.60753 11.8924 5.78637 12.1541C5.96522 12.4158 6.07751 12.7141 6.11422 13.025V13.0281L6.21987 13.9431C7.06571 14.1025 7.93503 14.1025 8.78088 13.9431L8.88653 13.0262C8.90218 12.8887 8.93218 12.7531 8.97653 12.6231H8.97587Z" fill="#333333" fill-opacity="0.75"/>
</svg>
