<svg  viewBox="0 0 18 18" fill="none" xmlns="http://www.w3.org/2000/svg">
<path d="M17 5.44444V12.5556C17 13.7343 16.5317 14.8648 15.6983 15.6983C14.8648 16.5317 13.7343 17 12.5556 17H5.44444C4.2657 17 3.13524 16.5317 2.30175 15.6983C1.46825 14.8648 1 13.7343 1 12.5556V5.44444C1 4.2657 1.46825 3.13524 2.30175 2.30175C3.13524 1.46825 4.2657 1 5.44444 1H12.5556C13.7343 1 14.8648 1.46825 15.6983 2.30175C16.5317 3.13524 17 4.2657 17 5.44444Z" stroke="currentColor" stroke-linecap="round" stroke-linejoin="round"/>
<path d="M7.22526 9.00008C6.69784 9.00008 6.18227 9.15648 5.74374 9.4495C5.30521 9.74251 4.96342 10.159 4.76158 10.6463C4.55975 11.1335 4.50694 11.6697 4.60983 12.187C4.71273 12.7043 4.9667 13.1794 5.33964 13.5524C5.71258 13.9253 6.18774 14.1793 6.70502 14.2822C7.2223 14.3851 7.75848 14.3323 8.24575 14.1304C8.73302 13.9286 9.1495 13.5868 9.44251 13.1483C9.73553 12.7097 9.89193 12.1942 9.89193 11.6667V3.66675C10.1879 4.55564 11.3142 6.33341 13.4475 6.33341" stroke="currentColor" stroke-linecap="round" stroke-linejoin="round"/>
</svg>
