<svg width="17" height="18" viewBox="0 0 17 18" fill="none" xmlns="http://www.w3.org/2000/svg">
<path d="M9.25 5.3125C9.25 4.89829 8.91422 4.5625 8.5 4.5625C8.08579 4.5625 7.75 4.89829 7.75 5.3125H9.25ZM10.6213 8.09283C10.9142 7.79994 10.9142 7.32507 10.6213 7.03217C10.3284 6.73928 9.85357 6.73928 9.56067 7.03217L10.6213 8.09283ZM1.28148 1.91435C0.958032 2.17311 0.905591 2.64507 1.16435 2.96852C1.42311 3.29197 1.89507 3.34441 2.21852 3.08565L1.28148 1.91435ZM4.09352 1.58565C4.41697 1.32689 4.46941 0.854925 4.21065 0.531479C3.95189 0.208032 3.47993 0.155591 3.15648 0.414348L4.09352 1.58565ZM14.7815 3.08565C15.1049 3.34441 15.5769 3.29197 15.8357 2.96852C16.0944 2.64507 16.042 2.17311 15.7185 1.91435L14.7815 3.08565ZM13.8435 0.414348C13.5201 0.155591 13.0481 0.208032 12.7893 0.531479C12.5306 0.854925 12.583 1.32689 12.9065 1.58565L13.8435 0.414348ZM8.56436 9.08915L8.03403 8.55882L8.56436 9.08915ZM7.75 5.3125V9.0625H9.25V5.3125H7.75ZM9.56067 7.03217L8.03403 8.55882L9.09469 9.61948L10.6213 8.09283L9.56067 7.03217ZM15.25 9.0625C15.25 12.7904 12.2279 15.8125 8.5 15.8125V17.3125C13.0563 17.3125 16.75 13.6188 16.75 9.0625H15.25ZM8.5 15.8125C4.77208 15.8125 1.75 12.7904 1.75 9.0625H0.25C0.25 13.6188 3.94365 17.3125 8.5 17.3125V15.8125ZM1.75 9.0625C1.75 5.33458 4.77208 2.3125 8.5 2.3125V0.8125C3.94365 0.8125 0.25 4.50615 0.25 9.0625H1.75ZM8.5 2.3125C12.2279 2.3125 15.25 5.33458 15.25 9.0625H16.75C16.75 4.50615 13.0563 0.8125 8.5 0.8125V2.3125ZM2.21852 3.08565L4.09352 1.58565L3.15648 0.414348L1.28148 1.91435L2.21852 3.08565ZM15.7185 1.91435L13.8435 0.414348L12.9065 1.58565L14.7815 3.08565L15.7185 1.91435ZM8.03403 8.55882C8.48272 8.11013 9.24992 8.42785 9.25 9.0624L7.75 9.0626C7.7501 9.76431 8.5985 10.1157 9.09469 9.61948L8.03403 8.55882Z"  fill="currentColor"/>
</svg>
