<svg width="21" height="16" viewBox="0 0 21 16" fill="none" xmlns="http://www.w3.org/2000/svg">
<path d="M20.5243 1.881C19.7971 2.2 19.0222 2.41144 18.2143 2.51411C19.0454 2.01789 19.6798 1.23811 19.978 0.298222C19.2031 0.760222 18.3475 1.08656 17.4357 1.26867C16.7 0.485222 15.6513 0 14.5073 0C12.2877 0 10.5009 1.80156 10.5009 4.01011C10.5009 4.32789 10.5278 4.63344 10.5938 4.92433C7.26075 4.76178 4.31153 3.16433 2.33031 0.730889C1.98442 1.331 1.78153 2.01789 1.78153 2.75733C1.78153 4.14578 2.49653 5.37656 3.56231 6.08911C2.91819 6.07689 2.28631 5.88989 1.75097 5.59533C1.75097 5.60756 1.75097 5.62344 1.75097 5.63933C1.75097 7.58756 3.14064 9.20578 4.96297 9.57856C4.63664 9.66778 4.28097 9.71056 3.91186 9.71056C3.65519 9.71056 3.39608 9.69589 3.15286 9.64211C3.67231 11.2298 5.14631 12.397 6.89897 12.4349C5.53497 13.5019 3.80308 14.1448 1.92819 14.1448C1.59942 14.1448 1.28408 14.1301 0.96875 14.0898C2.74464 15.235 4.84931 15.8889 7.11897 15.8889C14.4963 15.8889 18.5296 9.77778 18.5296 4.48067C18.5296 4.30344 18.5235 4.13233 18.515 3.96244C19.3106 3.39778 19.9792 2.69256 20.5243 1.881Z" fill="#151D48"/>
</svg>
