<svg width="37" height="30" viewBox="0 0 37 30" fill="none" xmlns="http://www.w3.org/2000/svg">
<path d="M36.6667 3.52688C35.3031 4.125 33.8502 4.52146 32.3354 4.71396C33.8938 3.78354 35.0831 2.32146 35.6423 0.559167C34.1894 1.42542 32.5852 2.03729 30.8756 2.37875C29.496 0.909792 27.5298 0 25.3848 0C21.2231 0 17.8727 3.37792 17.8727 7.51896C17.8727 8.11479 17.9231 8.68771 18.0469 9.23312C11.7975 8.92833 6.26771 5.93313 2.55292 1.37042C1.90438 2.49563 1.52396 3.78354 1.52396 5.17C1.52396 7.77333 2.86458 10.081 4.86292 11.4171C3.65521 11.3942 2.47042 11.0435 1.46667 10.4912C1.46667 10.5142 1.46667 10.544 1.46667 10.5737C1.46667 14.2267 4.07229 17.2608 7.48917 17.9598C6.87729 18.1271 6.21042 18.2073 5.51833 18.2073C5.03708 18.2073 4.55125 18.1798 4.09521 18.079C5.06917 21.0558 7.83292 23.2444 11.1192 23.3154C8.56167 25.316 5.31438 26.5215 1.79896 26.5215C1.1825 26.5215 0.59125 26.494 0 26.4183C3.32979 28.5656 7.27604 29.7917 11.5317 29.7917C25.3642 29.7917 32.9267 18.3333 32.9267 8.40125C32.9267 8.06896 32.9152 7.74813 32.8992 7.42958C34.391 6.37083 35.6446 5.04854 36.6667 3.52688Z" fill="#C4C4C4"/>
</svg>
