<svg width="15" height="15" viewBox="0 0 15 15" fill="none" xmlns="http://www.w3.org/2000/svg">
<path d="M9.20757 1.19604C9.22467 1.17614 9.24597 1.15966 9.27017 1.14761C9.29437 1.13556 9.32097 1.12819 9.34835 1.12594C9.37573 1.1237 9.40332 1.12663 9.42943 1.13455C9.45555 1.14248 9.47965 1.15523 9.50027 1.17204L10.247 1.78105L7.89649 4.49984H9.45405L11.1616 2.52581L12.5011 3.61858C12.5407 3.65095 12.5651 3.69636 12.569 3.74512C12.5729 3.79387 12.5561 3.84212 12.5222 3.87958L11.9627 4.49984H13.5389C13.7342 4.23545 13.8182 3.91415 13.7752 3.59644C13.7322 3.27873 13.5651 2.98652 13.3054 2.77482L10.3054 0.327529C10.1607 0.209629 9.99149 0.120257 9.80818 0.0648693C9.62486 0.0094818 9.43126 -0.010758 9.2392 0.00538612C9.04715 0.0215302 8.86066 0.0737193 8.69114 0.158766C8.52162 0.243813 8.37262 0.359932 8.25324 0.500031L4.84541 4.49984H6.39405L9.20757 1.19604ZM10.7432 9.74992C10.582 9.74992 10.4273 9.80919 10.3132 9.91468C10.1992 10.0202 10.1351 10.1632 10.1351 10.3124C10.1351 10.4616 10.1992 10.6047 10.3132 10.7102C10.4273 10.8157 10.582 10.8749 10.7432 10.8749H12.3649C12.5261 10.8749 12.6808 10.8157 12.7949 10.7102C12.9089 10.6047 12.973 10.4616 12.973 10.3124C12.973 10.1632 12.9089 10.0202 12.7949 9.91468C12.6808 9.80919 12.5261 9.74992 12.3649 9.74992H10.7432ZM1.21622 4.68734C1.21622 4.53816 1.28028 4.39508 1.39433 4.28959C1.50837 4.1841 1.66304 4.12484 1.82432 4.12484H4.36054L5.32703 2.99982H1.82432C1.34048 2.99982 0.876459 3.17761 0.534332 3.49408C0.192205 3.81056 0 4.23979 0 4.68734V12.5625C0 13.2089 0.277629 13.8289 0.771813 14.2861C1.266 14.7432 1.93625 15 2.63514 15H12.3649C13.0637 15 13.734 14.7432 14.2282 14.2861C14.7224 13.8289 15 13.2089 15 12.5625V7.68739C15 7.04092 14.7224 6.42092 14.2282 5.96379C13.734 5.50666 13.0637 5.24985 12.3649 5.24985H1.82432C1.66304 5.24985 1.50837 5.19059 1.39433 5.0851C1.28028 4.97961 1.21622 4.83653 1.21622 4.68734ZM1.21622 12.5625V6.27887C1.40676 6.34112 1.61108 6.37487 1.82432 6.37487H12.3649C13.1481 6.37487 13.7838 6.96288 13.7838 7.68739V12.5625C13.7838 12.9106 13.6343 13.2444 13.3682 13.4906C13.1021 13.7367 12.7412 13.875 12.3649 13.875H2.63514C2.25881 13.875 1.89791 13.7367 1.63181 13.4906C1.36571 13.2444 1.21622 12.9106 1.21622 12.5625Z" fill="#333333" fill-opacity="0.75"/>
</svg>
