<svg width="17" height="17" viewBox="0 0 17 17" fill="none" xmlns="http://www.w3.org/2000/svg">
<path d="M10.7705 5.43823H5.8988C4.94297 5.43823 4.16797 6.2049 4.16797 7.1499V9.55823C4.16797 10.5041 4.94297 11.2699 5.8988 11.2699H10.7705C11.7263 11.2699 12.5013 10.5032 12.5013 9.55823V7.1499C12.5013 6.20407 11.7263 5.43823 10.7705 5.43823ZM9.60047 8.47157L7.3213 9.54657C7.30736 9.55316 7.29198 9.55612 7.27659 9.55519C7.26119 9.55425 7.24629 9.54945 7.23324 9.54123C7.2202 9.533 7.20944 9.52162 7.20196 9.50813C7.19449 9.49464 7.19053 9.47949 7.19047 9.46407V7.2474C7.19061 7.23178 7.19474 7.21645 7.20246 7.20288C7.21019 7.1893 7.22125 7.17792 7.23461 7.16983C7.24797 7.16173 7.26317 7.15718 7.27878 7.15661C7.29439 7.15604 7.30989 7.15947 7.3238 7.16657L9.60214 8.30823C9.61712 8.31606 9.62964 8.32788 9.63832 8.34238C9.64701 8.35689 9.65151 8.37351 9.65134 8.39041C9.65117 8.40731 9.64633 8.42384 9.63735 8.43816C9.62837 8.45248 9.61561 8.46404 9.60047 8.47157Z" fill="#C4302B"/>
<path d="M3.33333 1.66667C2.89131 1.66667 2.46738 1.84226 2.15482 2.15482C1.84226 2.46738 1.66667 2.89131 1.66667 3.33333V13.3333C1.66667 13.7754 1.84226 14.1993 2.15482 14.5118C2.46738 14.8244 2.89131 15 3.33333 15H13.3333C13.7754 15 14.1993 14.8244 14.5118 14.5118C14.8244 14.1993 15 13.7754 15 13.3333V3.33333C15 2.89131 14.8244 2.46738 14.5118 2.15482C14.1993 1.84226 13.7754 1.66667 13.3333 1.66667H3.33333ZM3.33333 0H13.3333C14.2174 0 15.0652 0.351189 15.6904 0.976311C16.3155 1.60143 16.6667 2.44928 16.6667 3.33333V13.3333C16.6667 14.2174 16.3155 15.0652 15.6904 15.6904C15.0652 16.3155 14.2174 16.6667 13.3333 16.6667H3.33333C2.44928 16.6667 1.60143 16.3155 0.976311 15.6904C0.351189 15.0652 0 14.2174 0 13.3333V3.33333C0 2.44928 0.351189 1.60143 0.976311 0.976311C1.60143 0.351189 2.44928 0 3.33333 0Z" fill="#C4302B"/>
</svg>
